<svg width="461" height="243" viewBox="0 0 461 243" fill="none" xmlns="http://www.w3.org/2000/svg">
<path d="M375.622 78.7873L90.9504 85.4945L10.6176 87.4402C-3.51359 87.7474 -3.56479 109.712 10.6176 109.405L295.341 102.647L375.622 100.855C389.754 100.394 389.805 78.4289 375.622 78.7873ZM455.392 77.7121C405.114 54.0577 355.723 28.6455 307.219 1.47535C294.931 -5.43665 283.821 13.8145 296.16 20.4705C340.09 45.1148 384.736 68.2572 430.099 89.8978C384.321 130.723 343.118 176.406 307.219 226.141C305.774 228.667 305.378 231.658 306.115 234.473C306.852 237.287 308.664 239.701 311.162 241.194C313.688 242.597 316.659 242.97 319.454 242.235C322.249 241.5 324.653 239.715 326.163 237.251C364.216 184.796 408.351 137.035 457.645 94.9665C458.818 93.7698 459.705 92.322 460.236 90.7325C460.768 89.143 460.932 87.4534 460.715 85.7914C460.498 84.1294 459.906 82.5385 458.984 81.1388C458.062 79.7392 456.834 78.5674 455.392 77.7121Z" fill="#1E3A2B"/>
</svg>
